<?xml version="1.0" encoding="UTF-8"?>
<svg id="_레이어_1" data-name="레이어 1" xmlns="http://www.w3.org/2000/svg" viewBox="0 0 986 1110.31">
  <defs>
    <style>
      .cls-1 {
        fill: #e51513;
      }

      .cls-2, .cls-3, .cls-4 {
        font-family: H2hdrM, HYHeadLine-Medium;
        font-size: 24px;
      }

      .cls-2, .cls-5 {
        fill: none;
      }

      .cls-6 {
        fill: #00a042;
      }

      .cls-7 {
        fill: #78c6b9;
      }

      .cls-8 {
        fill: #3c00fe;
      }

      .cls-9 {
        fill: #e41136;
      }

      .cls-10 {
        fill: #e41035;
      }

      .cls-11 {
        fill: #e30c32;
      }

      .cls-12 {
        fill: #3a3aa2;
      }

      .cls-13 {
        fill: #fbfefd;
      }

      .cls-14 {
        fill: #96d5f0;
      }

      .cls-15 {
        fill: #c5c5c5;
      }

      .cls-16 {
        fill: #33339f;
      }

      .cls-4 {
        fill: #231815;
      }

      .cls-17 {
        fill: #3838a1;
      }

      .cls-5 {
        font-family: AdobeMyungjoStd-Medium-KSCpc-EUC-H, 'Adobe Myungjo Std';
        font-size: 18px;
        font-weight: 500;
      }

      .cls-18 {
        fill: #3535a0;
      }
    </style>
  </defs>
  <path d="M89,268.31c30.98-.04,62.02-.07,93,0,16.32.04,32.68-.03,49,0v283h47l-1.99-128.01h-8.01s0-38.99,0-38.99h47v37c0,.4,8-.4,8,0v38c0,.35-7-.35-7,0v92h-36v36L0,589.31v-321c29.65-.03,59.35.04,89,0Z"/>
  <path d="M461,399.31c145.32-.14,290.68.1,436,0v190h-436c.04-63.32-.03-126.68,0-190Z"/>
  <path d="M496,1.31c.18,0,1.55-1.06,3.38-1.07,131.86-.79,263.77.75,395.62.07-.33,46.19.39,92.42.07,138.62-.01,1.83-1.07,3.2-1.07,3.38h-398c.13-.14-.08-.67,0-1V1.31Z"/>
  <path class="cls-14" d="M461,399.31c-.03,63.32.04,126.68,0,190-.03,42.98.02,86.02,0,129h-105v-319c34.98-.03,70.02.03,105,0Z"/>
  <path class="cls-7" d="M216,659.31h96.49c12.53-.96,7.92-2.91,15-8.01,1.88-1.35,5.84-2.06,6.37-3.63l2.18-256.7c-5.71-2.78-9.49-6.71-11.7-12.71-21.24-.57-42.66.91-63.89.09-2.13-.08-4.01-.91-5.97-1.03-2.9-.18-12.82.81-14.06-.94-1.87-2.64.34-7.53,4.02-7.12l80.88.09c2.39-5.03,5.71-8.33,10.71-10.71,1.49-60.01.9-120.28,1.96-180.34-6.42,1.43-14.96-2.88-17.78-8.72-1.15-2.39-.86-7.28-1.23-7.28H104.5c-1.77,0-4.24-5.68-.5-7.5,72.19-.79,144.81-.56,216.98-2.02,12-16.29,37.04-3.95,29.5,15.5-1.27,3.29-4.12,5.31-4.54,8.46l-.95,180.06c3.79,4.94,10.87,5.29,12.16,13.33l229.38,1.24c2.29-.02,2.16-3.49,3.62-5.41,2.99-3.94,5.65-6,10.38-7.62.41-60.43,1.7-121.05,1.54-181.58-.25-2.09-7.71-5.04-8.84-11.2-3.54-19.27,16.97-28.55,29.78-14.78,50.07,1.68,100.69-.79,150.75,1.25,4.82,2.25,2.02,8.74-3.24,8.28l-144.51-1.01c.26,5.93-2.89,13.36-8.3,16.2-1.65.86-6.38,1.64-6.6,1.9-.93,1.08.05,24.51-.06,28.44-1.05,36.44-1.61,73.47-2.08,109.92-.18,14.28.25,28.59,0,42.87,30.44,14.88-4.16,51.62-20.58,21.61-12.62-.14-25.3.38-37.92.1-48.27-1.07-96.64-.4-145-1-14.46-.18-30.51-2.84-45.02-1.1-4.78.57-4.54,6.87-8.93,10.07-5.64,4.11-6.8.72-7.55,10.45-2.57,33.5.35,72.81.08,107.08-.32,39.75-1.17,80.17-2.08,119.92-.07,3.22-.42,22.39.2,23.38.2.32,3.97,1.46,5.18,2.32,10.95,7.86,7.53,26.07-5.4,29.44,1.44,14.47-1.69,31.86,0,45.95.58,4.78,6.29,4.25,9.5,8.5,7.99,10.61,1.69,24.4-10.49,27.6-.47,27.93.77,55.96.09,83.88-.09,3.65-2.43,15.82-.88,18.3.3.49,7.45,2.81,9.85,5.65,8.66,10.25,2.32,25.11-10.06,28.17l.05,46.34c-2.98-.09-6.02-.03-9,0,.24-11.15-.3-22.38-.04-33.54.09-3.85,1.87-7.73,1.02-11.94s-13.2-8.67-11.02-16.47h-84.5c-6.85,1.1-8.81-7.28-2.01-8.1l86.07.07c2.89-.55,6.43-9.13,11.33-9.16-.18-34.8.72-69.45,1.2-104.18-4.18-2.37-9.25-5.34-10.18-10.51-103.48-.85-207.25.96-310.6-.91-6.16-3.44-3.18-8.55,3.19-8.29l305.88.09c2.66-5.72,5.74-10.05,11.71-12.7-1.4-14.43,1.71-31.84.01-45.89-.53-4.38-2.62-3-5-5-3.72-3.12-6.92-6.13-7.15-11.34l-104.9-.1c.03-2.66-.01-5.34,0-8ZM608.74,151.52c-12.33,1.01-11.16,20.09,1.67,18.78,11.07-1.13,9.77-19.72-1.67-18.78ZM334.74,152.52c-12.33,1.01-11.16,20.09,1.67,18.78,11.07-1.13,9.77-19.72-1.67-18.78ZM340.74,365.52c-12.33,1.01-11.16,20.09,1.67,18.78,11.07-1.13,9.77-19.72-1.67-18.78ZM603.74,365.52c-12.33,1.01-11.16,20.09,1.67,18.78,11.07-1.13,9.77-19.72-1.67-18.78ZM336.74,655.52c-12.33,1.01-11.16,20.09,1.67,18.78,11.07-1.13,9.77-19.72-1.67-18.78ZM337.74,736.52c-12.33,1.01-11.16,20.09,1.67,18.78,11.07-1.13,9.77-19.72-1.67-18.78ZM336.74,872.52c-12.33,1.01-11.16,20.09,1.67,18.78,11.07-1.13,9.77-19.72-1.67-18.78Z"/>
  <path class="cls-15" d="M216,667.31c-.05,4.32.04,8.68,0,13H2v-90h214c-.08,22.98.11,46.02,0,69-.01,2.66.03,5.34,0,8Z"/>
  <rect class="cls-14" x="91" y=".31" width="136" height="141"/>
  <path class="cls-14" d="M496,1.31v140h-130V1.31c43.31-.2,86.69.27,130,0Z"/>
  <path class="cls-14" d="M894,142.31c-.26,35.31.2,70.69,0,106h-106v-106h106Z"/>
  <path class="cls-14" d="M495,272.31c.03,6.65.01,13.35,0,20-.03,20.32.02,40.68,0,61h-136v-81h136Z"/>
  <path d="M182,175.31h93v37h38v37c0,.5,10-.5,10,0v37c0,.45-9-.45-9,0v36c0,.45,9-.45,9,0v37h-48v-36c0-.4-8,.4-8,0v-38c0-.45,9,.45,9,0v-36c0-.4-8,.4-8,0v-37h-86v-37Z"/>
  <rect class="cls-14" x="3" y="860.31" width="99" height="95"/>
  <rect class="cls-14" x="3" y="759.31" width="93" height="100"/>
  <path class="cls-14" d="M182,175.31v93c-30.98-.07-62.02-.04-93,0v-93.01c30.98,0,62.01,0,93,0Z"/>
  <rect class="cls-14" x="631" y="170.31" width="80" height="104"/>
  <rect class="cls-14" x="2" y="956.31" width="101" height="81"/>
  <rect class="cls-14" x="355" y="875.31" width="108" height="73"/>
  <rect class="cls-14" x="3" y="1038.31" width="99" height="72"/>
  <rect class="cls-14" x="713" y="170.31" width="73" height="95"/>
  <rect class="cls-15" x="304" y="2.31" width="61" height="107"/>
  <rect class="cls-14" x="226" y="1029.31" width="82" height="79"/>
  <path class="cls-14" d="M496,142.31h84v73.01c-16.31,0-32.68,0-49,0h-36c-.07-8.56-3.16-70.07-.79-72.84.38-.44,1.67-.03,1.79-.16Z"/>
  <rect class="cls-15" x="97" y="759.31" width="56" height="100"/>
  <rect class="cls-14" x="226" y="896.31" width="81" height="67"/>
  <rect class="cls-14" x="225" y="964.31" width="82" height="64"/>
  <polygon points="302 .31 302 49.31 264 49.31 264 68.31 228 68.31 228 .31 302 .31"/>
  <rect x="195" y="757.31" width="40" height="102"/>
  <rect class="cls-15" x="360" y="720.31" width="101" height="36"/>
  <path class="cls-15" d="M531,215.31v77.01s-36,0-36,0c.01-6.65.03-13.35,0-20-.07-18.98.15-38.02,0-57h36Z"/>
  <rect class="cls-8" x="154" y="823.31" width="40" height="36"/>
  <rect class="cls-8" x="228" y="70.31" width="36" height="40"/>
  <rect class="cls-6" x="630" y="353.31" width="7" height="41"/>
  <path class="cls-6" d="M331,945.31c2.98-.03,6.02-.09,9,0,2.33.07,4.68-.06,7.01,0v6.01h-31.01v-6.01c4.98-.03,10.01.05,15,0Z"/>
  <rect class="cls-6" x="1" y="728.31" width="7" height="25"/>
  <path class="cls-16" d="M432,192.31h-2.99c.8-7.69-4.29-18.94-1.86-26.36.74-2.27,5.33-2.31,6.42-.71.3.44,1.49,9.51,1.47,10.6-.07,4.29-4.9,10.94-3.04,16.47Z"/>
  <path class="cls-18" d="M411,863.31h-3.99c-.85-2.81.95-6.28.87-8.56-.07-1.83-1.68-3.2-1.82-5-.26-3.3-1.57-18.32,6.02-13.01,3.74,2.61-2.29,21.75-1.08,26.57Z"/>
  <path class="cls-10" d="M434.87,246.14c-.35.46-2.27.38-2.74,1.78-.56,1.65.13,8.47-1.15,9.39-3.87,2.78-2.81-9.55-3-10.32s-1.97-.64-2.01-1.25c-.04-.65,1.74-11.38,2.05-12.89.88-4.25,4.14-4.16,4.94-.01.34,1.8-.2,3.94.13,5.87.27,1.55,2.15,6.95,1.77,7.44Z"/>
  <path class="cls-9" d="M411,779.3c-1.53,4.49,2.33,10.93,1.98,14.46-.16,1.58-1.78,3.07-2.31,4.71-.35,1.09-.35,8.01-2.65,5.83-1.24-1.18-.63-6.62-1.03-8.32-.22-.93-2.08-.23-1.99-2.03.22-4.36,3.21-9.69,2.01-14.65h3.99Z"/>
  <path class="cls-11" d="M432.99,220.31c.7.71.37,7.13-3.48,5.99-4.46-1.32.68-8.82,3.48-5.99Z"/>
  <path class="cls-17" d="M428.61,154.4c3.71-1.14,6.04,2.61,3.43,4.44-3.91,2.74-7.31-3.24-3.43-4.44Z"/>
  <path class="cls-12" d="M408.63,825.37c4.29-.71,3.84,7.25-1.11,5.93-2.75-.73-1.16-5.56,1.11-5.93Z"/>
  <path class="cls-13" d="M337.74,736.52c11.44-.94,12.75,17.65,1.67,18.78-12.84,1.31-14-17.77-1.67-18.78Z"/>
  <path class="cls-13" d="M334.74,152.52c11.44-.94,12.75,17.65,1.67,18.78-12.84,1.31-14-17.77-1.67-18.78Z"/>
  <path class="cls-13" d="M608.74,151.52c11.44-.94,12.75,17.65,1.67,18.78-12.84,1.31-14-17.77-1.67-18.78Z"/>
  <path class="cls-13" d="M336.74,872.52c11.44-.94,12.75,17.65,1.67,18.78-12.84,1.31-14-17.77-1.67-18.78Z"/>
  <path class="cls-13" d="M603.74,365.52c11.44-.94,12.75,17.65,1.67,18.78-12.84,1.31-14-17.77-1.67-18.78Z"/>
  <path class="cls-13" d="M340.74,365.52c11.44-.94,12.75,17.65,1.67,18.78-12.84,1.31-14-17.77-1.67-18.78Z"/>
  <path class="cls-13" d="M336.74,655.52c11.44-.94,12.75,17.65,1.67,18.78-12.84,1.31-14-17.77-1.67-18.78Z"/>
  <circle class="cls-1" cx="408.8" cy="771.53" r="2.74"/>
  <rect class="cls-14" x="103" y="860.31" width="123" height="248"/>
  <rect class="cls-14" x="243" y="759.31" width="80" height="104"/>
  <text transform="translate(115.02 79.25)"><tspan><tspan class="cls-2" x="0" y="0">Lo</tspan><tspan class="cls-4" x="24.98" y="0">203</tspan><tspan class="cls-2" x="66.96" y="0">203rem </tspan><tspan class="cls-5" x="161.91" y="0">ipsum</tspan></tspan></text>
  <text class="cls-3"><tspan x="240.11" y="372.42">2</tspan><tspan x="240.11" y="401.22">0</tspan><tspan x="240.11" y="430.02">1</tspan></text>
  <text class="cls-3" transform="translate(397.66 80.25)"><tspan x="0" y="0">203-1</tspan></text>
  <text class="cls-3" transform="translate(115 233.31)"><tspan x="0" y="0">202</tspan></text>
  <text class="cls-3" transform="translate(517 189.31)"><tspan x="0" y="0">205</tspan></text>
  <text class="cls-3" transform="translate(650 229.31)"><tspan x="0" y="0">206</tspan></text>
  <text class="cls-3" transform="translate(729 227.31)"><tspan x="0" y="0">207</tspan></text>
  <text class="cls-3" transform="translate(821 206.31)"><tspan x="0" y="0">208</tspan></text>
  <text class="cls-3" transform="translate(408 319.31)"><tspan x="0" y="0">204</tspan></text>
  <text class="cls-3" transform="translate(387 576.31)"><tspan x="0" y="0">209</tspan></text>
  <text class="cls-3" transform="translate(30 820.31)"><tspan x="0" y="0">216</tspan></text>
  <text class="cls-3" transform="translate(33 920.31)"><tspan x="0" y="0">217</tspan></text>
  <text class="cls-3" transform="translate(32 1004.31)"><tspan x="0" y="0">218</tspan></text>
  <text class="cls-3" transform="translate(31 1082.31)"><tspan x="0" y="0">219</tspan></text>
  <text class="cls-3" transform="translate(138 999.31)"><tspan x="0" y="0">215</tspan></text>
  <text class="cls-3" transform="translate(245 938.31)"><tspan x="0" y="0">212</tspan></text>
  <text class="cls-3" transform="translate(247 1074.31)"><tspan x="0" y="0">214</tspan></text>
  <text class="cls-3" transform="translate(246 1000.31)"><tspan x="0" y="0">213</tspan></text>
  <text class="cls-3" transform="translate(263 821.31)"><tspan x="0" y="0">211</tspan></text>
  <rect class="cls-14" x="240" y="277.36" width="24" height="214"/>
  <text class="cls-3" transform="translate(389 919.31)"><tspan x="0" y="0">210</tspan></text>
</svg>